<!DOCTYPE svg PUBLIC "-//W3C//DTD SVG 1.1//EN" "http://www.w3.org/Graphics/SVG/1.1/DTD/svg11.dtd">
<!-- Uploaded to: SVG Repo, www.svgrepo.com, Transformed by: SVG Repo Mixer Tools -->
<svg width="800px" height="800px" viewBox="0 0 32 32" id="airplane_Light" data-name="airplane/Light" xmlns="http://www.w3.org/2000/svg" fill="#000000">
<g id="SVGRepo_bgCarrier" stroke-width="0"/>
<g id="SVGRepo_tracerCarrier" stroke-linecap="round" stroke-linejoin="round"/>
<g id="SVGRepo_iconCarrier"> <path id="Path" d="M0,0H2V2H0Z" fill="#ffffff"/> <path id="Path-2" data-name="Path" d="M0,0H6V2H4V4H2V2H0Z" transform="translate(2)" fill="#1a1a1a"/> <path id="Path-3" data-name="Path" d="M0,0H24V18H16V16H14V14H12V12h8V10h2V8H20V6H4V4H2V2H0Z" transform="translate(8)" fill="#ffffff"/> <path id="Path-4" data-name="Path" d="M0,0H2V2H4V4H6V6h4V8h2v2H10V26H8V18H6V16H4V12H8V10H6V8H4V6H2V4H0Z" transform="translate(0 2)" fill="#1a1a1a"/> <path id="Path-5" data-name="Path" d="M0,0H2V2H0Z" transform="translate(2 2)" fill="#ffffff"/> <path id="Path-6" data-name="Path" d="M2,0H4V2H6V4H8V6h2V8h2v2h2v2h2v2h2v2h2v2h2v2h2v2H22v2H20V20H18V18H14V14H12V12H10V10H8V8H6V6H2V4H0V2H2Z" transform="translate(4 2)" fill="#ffffff"/> <path id="Path-7" data-name="Path" d="M0,0H2V2H0Z" transform="translate(8 2)" fill="#1a1a1a"/> <path id="Path-8" data-name="Path" d="M0,0H2V2H0Z" transform="translate(10 4)" fill="#1a1a1a"/> <path id="Path-9" data-name="Path" d="M0,0H2V2H4V4H6V6H8V8H4v4H6v2H8v8h2v2h4V20h2V14h2v2h4v6h4V20h4V16h2V26H0Z" transform="translate(0 6)" fill="#ffffff"/> <path id="Path-10" data-name="Path" d="M0,0H16V2H4V4H2V2H0Z" transform="translate(12 6)" fill="#1a1a1a"/> <path id="Path-11" data-name="Path" d="M0,0H12V2H0Z" transform="translate(16 8)" fill="#ffffff"/> <path id="Path-12" data-name="Path" d="M0,0H2V2H0Z" transform="translate(28 8)" fill="#1a1a1a"/> <path id="Path-13" data-name="Path" d="M0,0H12V2H4V4H2V2H0Z" transform="translate(16 10)" fill="#1a1a1a"/> <path id="Path-14" data-name="Path" d="M0,0H2V2H4V14H2v2H0Z" transform="translate(10 12)" fill="#ffffff"/> <path id="Path-15" data-name="Path" d="M0,0H2V2H0Z" transform="translate(12 12)" fill="#1a1a1a"/> <path id="Path-16" data-name="Path" d="M0,0H2V2H4V6H2v6H0Z" transform="translate(14 14)" fill="#1a1a1a"/> <path id="Path-17" data-name="Path" d="M0,0H2V2H0Z" transform="translate(20 14)" fill="#1a1a1a"/> <path id="Path-18" data-name="Path" d="M0,0H2V2H0Z" transform="translate(22 16)" fill="#1a1a1a"/> <path id="Path-19" data-name="Path" d="M0,0H8V4H6V8H2V6H4V4H2V2H0Z" transform="translate(24 18)" fill="#1a1a1a"/> <path id="Path-20" data-name="Path" d="M0,0H4V2H0Z" transform="translate(18 20)" fill="#1a1a1a"/> <path id="Path-21" data-name="Path" d="M0,0H2V4H4V6H0Z" transform="translate(22 22)" fill="#1a1a1a"/> <path id="Path-22" data-name="Path" d="M2,0H4V4H0V2H2Z" transform="translate(10 26)" fill="#1a1a1a"/> </g>
</svg>