<!DOCTYPE svg PUBLIC "-//W3C//DTD SVG 1.1//EN" "http://www.w3.org/Graphics/SVG/1.1/DTD/svg11.dtd">
<!-- Uploaded to: SVG Repo, www.svgrepo.com, Transformed by: SVG Repo Mixer Tools -->
<svg width="800px" height="800px" viewBox="0 0 32 32" id="bearface_Light" data-name="bearface/Light" xmlns="http://www.w3.org/2000/svg" fill="currentColor">
<g id="SVGRepo_bgCarrier" stroke-width="0"/>
<g id="SVGRepo_tracerCarrier" stroke-linecap="round" stroke-linejoin="round"/>
<g id="SVGRepo_iconCarrier"> <path id="Path" d="M0,0H6V2H2V8H0Z" fill="currentColor"/> <path id="Path-2" data-name="Path" d="M0,0H20V2H18V6H16V4H2V2H0Z" transform="translate(6)" fill="currentColor"/> <path id="Path-3" data-name="Path" d="M0,0H6V8H4V2H0Z" transform="translate(26)" fill="currentColor"/> <path id="Path-4" data-name="Path" d="M0,0H4V2H6V4H4V6H0Z" transform="translate(2 2)" fill="currentColor"/> <path id="Path-5" data-name="Path" d="M0,0H2V2H0Z" transform="translate(6 2)" fill="currentColor"/> <path id="Path-6" data-name="Path" d="M2,0H4V8H2V6H0V4H2Z" transform="translate(22 2)" fill="currentColor"/> <path id="Path-7" data-name="Path" d="M0,0H4V6H2V8H0Z" transform="translate(26 2)" fill="currentColor"/> <path id="Path-8" data-name="Path" d="M0,0H14V2H0Z" transform="translate(8 4)" fill="currentColor"/> <path id="Path-9" data-name="Path" d="M0,0H2V2H0Z" transform="translate(6 6)" fill="currentColor"/> <path id="Path-10" data-name="Path" d="M4,0H18V2h2V4h2V6h2v8H22v4H18v2H6V18H2V14H0V6H2V2H4Z" transform="translate(4 6)" fill="currentColor"/> <path id="Path-11" data-name="Path" d="M0,0H2V2H4V4H2v8H4v2H2v2H0Z" transform="translate(0 8)" fill="currentColor"/> <path id="Path-12" data-name="Path" d="M0,0H4V4H2V2H0Z" transform="translate(2 8)" fill="currentColor"/> <path id="Path-13" data-name="Path" d="M0,0H2V2H0Z" transform="translate(14 8)" fill="currentColor"/> <path id="Path-14" data-name="Path" d="M0,0H2V2H0Z" transform="translate(18 8)" fill="currentColor"/> <path id="Path-15" data-name="Path" d="M0,0H2V2H0Z" transform="translate(28 8)" fill="currentColor"/> <path id="Path-16" data-name="Path" d="M2,0H4V16H2V14H0V12H2V4H0V2H2Z" transform="translate(28 8)" fill="currentColor"/> <path id="Path-17" data-name="Path" d="M0,0H2V2H0Z" transform="translate(26 10)" fill="currentColor"/> <path id="Path-18" data-name="Path" d="M0,0H2V8H0Z" transform="translate(2 12)" fill="currentColor"/> <path id="Path-19" data-name="Path" d="M2,0H8V4H6V8h4v2H0V8H4V4H2Z" transform="translate(12 12)" fill="currentColor"/> <path id="Path-20" data-name="Path" d="M0,0H2V8H0Z" transform="translate(28 12)" fill="currentColor"/> <path id="Path-21" data-name="Path" d="M0,0H2V2H0Z" transform="translate(10 18)" fill="currentColor"/> <path id="Path-22" data-name="Path" d="M0,0H2V2H0Z" transform="translate(22 18)" fill="currentColor"/> <path id="Path-23" data-name="Path" d="M2,0H4V4H0V2H2Z" transform="translate(2 20)" fill="currentColor"/> <path id="Path-24" data-name="Path" d="M0,0H2V2H4V4H0Z" transform="translate(26 20)" fill="currentColor"/> <path id="Path-25" data-name="Path" d="M0,0H2V2H0Z" transform="translate(0 24)" fill="currentColor"/> <path id="Path-26" data-name="Path" d="M0,0H4V2H8V4H20V2h4V0h4V2H26V4H22V6H6V4H2V2H0Z" transform="translate(2 24)" fill="currentColor"/> <path id="Path-27" data-name="Path" d="M0,0H4V2H0Z" transform="translate(6 24)" fill="currentColor"/> <path id="Path-28" data-name="Path" d="M0,0H4V2H0Z" transform="translate(22 24)" fill="currentColor"/> <path id="Path-29" data-name="Path" d="M0,0H2V2H0Z" transform="translate(30 24)" fill="currentColor"/> <path id="Path-30" data-name="Path" d="M0,0H2V2H4V4H8V6H0Z" transform="translate(0 26)" fill="currentColor"/> <path id="Path-31" data-name="Path" d="M0,0H2V2H0Z" transform="translate(2 26)" fill="currentColor"/> <path id="Path-32" data-name="Path" d="M0,0H12V2H0Z" transform="translate(10 26)" fill="currentColor"/> <path id="Path-33" data-name="Path" d="M0,0H2V2H0Z" transform="translate(28 26)" fill="currentColor"/> <path id="Path-34" data-name="Path" d="M6,0H8V6H0V4H4V2H6Z" transform="translate(24 26)" fill="currentColor"/> <path id="Path-35" data-name="Path" d="M0,0H4V2H0Z" transform="translate(4 28)" fill="currentColor"/> <path id="Path-36" data-name="Path" d="M0,0H4V2H0Z" transform="translate(24 28)" fill="currentColor"/> <path id="Path-37" data-name="Path" d="M0,0H16V2H0Z" transform="translate(8 30)" fill="currentColor"/> </g>
</svg>