<!DOCTYPE svg PUBLIC "-//W3C//DTD SVG 1.1//EN" "http://www.w3.org/Graphics/SVG/1.1/DTD/svg11.dtd">
<!-- Uploaded to: SVG Repo, www.svgrepo.com, Transformed by: SVG Repo Mixer Tools -->
<svg width="800px" height="800px" viewBox="0 0 32 32" id="whiteuppointingindex_Light" data-name="whiteuppointingindex/Light" xmlns="http://www.w3.org/2000/svg" fill="currentColor">
<g id="SVGRepo_bgCarrier" stroke-width="0"/>
<g id="SVGRepo_tracerCarrier" stroke-linecap="round" stroke-linejoin="round"/>
<g id="SVGRepo_iconCarrier"> <path id="Path" d="M0,0H26V2H22V4H18V6H16V8H14v2H12v2H10v2H8v2H6v2H4v2H0Z" fill="currentColor"/> <path id="Path-2" data-name="Path" d="M0,0H2V2H0Z" transform="translate(26)" fill="currentColor"/> <path id="Path-3" data-name="Path" d="M28,0h4V32H0V30H4V28H18V26h8V24h2V20h2V16H28V12H26V10H24V8h2V6h2V4h2V2H28Z" fill="currentColor"/> <path id="Path-4" data-name="Path" d="M0,0H4V2H0Z" transform="translate(22 2)" fill="currentColor"/> <path id="Path-5" data-name="Path" d="M0,0H2V2H0Z" transform="translate(26 2)" fill="currentColor"/> <path id="Path-6" data-name="Path" d="M0,0H2V2H0Z" transform="translate(28 2)" fill="currentColor"/> <path id="Path-7" data-name="Path" d="M0,0H4V2H0Z" transform="translate(18 4)" fill="currentColor"/> <path id="Path-8" data-name="Path" d="M22,0h4V2H24V4H22V6H20V8H18v8h4V14h2v2h2v2H22v2H18v2H4v2H0V18H4V16H6V14H8V12h2V10h2V8h2V6h2V4h2V2h4Z" transform="translate(0 4)" fill="currentColor"/> <path id="Path-9" data-name="Path" d="M0,0H2V2H0Z" transform="translate(26 4)" fill="currentColor"/> <path id="Path-10" data-name="Path" d="M0,0H2V2H0Z" transform="translate(16 6)" fill="currentColor"/> <path id="Path-11" data-name="Path" d="M0,0H2V2H0Z" transform="translate(24 6)" fill="currentColor"/> <path id="Path-12" data-name="Path" d="M0,0H2V2H0Z" transform="translate(14 8)" fill="currentColor"/> <path id="Path-13" data-name="Path" d="M4,0H6V2H8V4H4V8H8V4h2V8h2v4H10V10H8v2H6V10H4v2H0V4H2V2H4Z" transform="translate(18 8)" fill="currentColor"/> <path id="Path-14" data-name="Path" d="M0,0H2V2H0Z" transform="translate(12 10)" fill="currentColor"/> <path id="Path-15" data-name="Path" d="M0,0H2V2H0Z" transform="translate(10 12)" fill="currentColor"/> <path id="Path-16" data-name="Path" d="M0,0H4V4H0Z" transform="translate(22 12)" fill="currentColor"/> <path id="Path-17" data-name="Path" d="M0,0H2V2H0Z" transform="translate(8 14)" fill="currentColor"/> <path id="Path-18" data-name="Path" d="M0,0H2V2H0Z" transform="translate(6 16)" fill="currentColor"/> <path id="Path-19" data-name="Path" d="M0,0H2V2H0Z" transform="translate(4 18)" fill="currentColor"/> <path id="Path-20" data-name="Path" d="M0,0H2V2H0Z" transform="translate(26 18)" fill="currentColor"/> <path id="Path-21" data-name="Path" d="M0,0H4V2H0Z" transform="translate(0 20)" fill="currentColor"/> <path id="Path-22" data-name="Path" d="M8,0h2V4H8V6H0V4H4V2H8Z" transform="translate(18 20)" fill="currentColor"/> <path id="Path-23" data-name="Path" d="M0,0H14V2H0Z" transform="translate(4 26)" fill="currentColor"/> <path id="Path-24" data-name="Path" d="M0,0H4V2H0Z" transform="translate(0 28)" fill="currentColor"/> </g>
</svg>