<!DOCTYPE svg PUBLIC "-//W3C//DTD SVG 1.1//EN" "http://www.w3.org/Graphics/SVG/1.1/DTD/svg11.dtd">
<!-- Uploaded to: SVG Repo, www.svgrepo.com, Transformed by: SVG Repo Mixer Tools -->
<svg height="800px" width="800px" version="1.1" id="Layer_1" xmlns="http://www.w3.org/2000/svg" xmlns:xlink="http://www.w3.org/1999/xlink" viewBox="0 0 512 512" xml:space="preserve" fill="#000000">
<g id="SVGRepo_bgCarrier" stroke-width="0"/>
<g id="SVGRepo_tracerCarrier" stroke-linecap="round" stroke-linejoin="round"/>
<g id="SVGRepo_iconCarrier"> <polygon style="fill:#ffffff;" points="255.96,12.206 290.17,89.178 375.695,97.731 315.828,157.598 332.933,243.123 255.96,208.913 178.988,243.123 196.093,157.598 136.226,97.731 221.75,89.178 "/> <polygon style="fill:#ffffff;" points="196.623,235.286 213.39,154.052 168.832,109.143 230.57,103.076 264.101,30.523 255.96,12.206 221.75,89.178 136.226,97.731 196.093,157.598 178.988,243.123 "/> <polygon style="fill:#ffffff;" points="92.178,219.492 75.822,294.756 7.938,320.095 70.979,362.845 76.506,439.83 136.226,388.515 204.646,405.62 177.043,336.953 213.198,268.78 141.374,278.755 "/> <polygon style="fill:#ffffff;" points="41.614,323.837 89.187,306.197 104.612,234.47 92.178,219.492 75.822,294.756 7.938,320.095 70.979,362.845 76.506,439.83 91.986,426.529 86.514,354.305 "/> <polygon style="fill:#ffffff;" points="419.743,219.492 436.099,294.756 503.983,320.095 440.942,362.845 435.415,439.83 375.695,388.515 307.275,405.62 334.876,336.953 298.723,268.78 370.547,278.755 "/> <polygon style="fill:#ffffff;" points="325.449,287.31 374.626,294.082 423.678,237.604 419.743,219.492 370.547,278.755 298.723,268.78 334.877,336.953 307.275,405.62 324.767,401.247 351.107,335.062 "/> <g> <path style="fill:#E9E9EA;" d="M452.668,89.178c0,18.894,15.316,34.21,34.21,34.21c-18.894,0-34.21,15.316-34.21,34.21 c0-18.894-15.316-34.21-34.21-34.21C437.351,123.388,452.668,108.072,452.668,89.178z"/> <path style="fill:#E9E9EA;" d="M255.96,431.278c0,18.894,15.316,34.21,34.21,34.21c-18.893,0-34.21,15.316-34.21,34.21 c0-18.894-15.316-34.21-34.21-34.21C240.644,465.488,255.96,450.171,255.96,431.278z"/> <path style="fill:#E9E9EA;" d="M50.701,89.178c0,18.894,15.316,34.21,34.21,34.21c-18.894,0-34.21,15.316-34.21,34.21 c0-18.894-15.316-34.21-34.21-34.21C35.384,123.388,50.701,108.072,50.701,89.178z"/> </g> <path d="M187.389,160.233l-16.264,81.317c-1.25,6.25,5.287,11.493,11.118,8.899l73.716-32.762l73.716,32.762 c5.839,2.596,12.368-2.654,11.118-8.899l-16.264-81.317l56.833-56.833c4.693-4.693,1.717-12.988-4.873-13.648l-80.888-8.089 L263.287,8.949c-2.765-6.219-11.889-6.221-14.654,0l-32.318,72.714l-80.888,8.089c-6.589,0.66-9.566,8.954-4.872,13.648 L187.389,160.233z M222.548,97.156c2.867-0.287,5.359-2.089,6.529-4.722l26.883-60.486l26.883,60.486 c1.171,2.633,3.663,4.436,6.529,4.722l68.689,6.869l-47.905,47.904c-1.894,1.895-2.718,4.613-2.193,7.242l14.067,70.334 l-62.816-27.917c-2.056-0.914-4.457-0.914-6.513,0l-62.816,27.917l14.067-70.334c0.526-2.629-0.297-5.346-2.193-7.242 l-47.899-47.904L222.548,97.156z"/> <path d="M185.873,337.419l34.409-64.882c3.009-5.676-1.84-12.575-8.187-11.698l-67.403,9.361l-46.344-55.829 c-4.19-5.046-12.615-2.976-14.005,3.419l-15.428,70.987L5.134,312.585c-5.98,2.231-6.984,10.561-1.697,14.148L63.259,367.3 l5.248,73.107c0.462,6.423,8.312,9.727,13.223,5.507l56.575-48.611l64.396,16.099c6.228,1.56,11.778-4.814,9.384-10.769 L185.873,337.419z M138.17,380.737c-2.526-0.632-5.197,0.001-7.17,1.697l-47.638,40.933l-4.386-61.097 c-0.176-2.45-1.465-4.684-3.497-6.062l-50.186-34.033l53.333-19.908c2.556-0.955,4.453-3.142,5.032-5.809l12.862-59.185 l38.685,46.603c1.773,2.135,4.52,3.202,7.273,2.82l56.29-7.817l-28.806,54.318c-1.106,2.087-1.237,4.555-0.356,6.747l21.74,54.086 L138.17,380.737z"/> <path d="M511.943,319.142c-0.357-2.978-2.346-5.509-5.156-6.558l-63.782-23.808l-15.428-70.987 c-1.39-6.393-9.816-8.468-14.005-3.419l-46.344,55.828l-67.404-9.361c-6.347-0.886-11.193,6.027-8.186,11.698l34.409,64.882 l-26.212,65.211c-2.393,5.957,3.155,12.327,9.384,10.769l64.395-16.099l56.575,48.611c4.91,4.22,12.76,0.916,13.222-5.507 l5.249-73.107l59.82-40.567C510.965,325.047,512.3,322.119,511.943,319.142z M436.442,356.208c-2.032,1.379-3.322,3.612-3.497,6.062 l-4.387,61.097l-47.638-40.933c-1.955-1.681-4.669-2.322-7.17-1.697l-53.174,13.294l21.74-54.086c0.881-2.192,0.75-4.66-0.356-6.747 l-28.806-54.318l56.29,7.817c2.744,0.382,5.499-0.685,7.272-2.82l38.685-46.602l12.863,59.185c0.579,2.666,2.475,4.855,5.031,5.809 l53.334,19.908L436.442,356.208z"/> <path d="M418.458,131.406c14.443,0,26.192,11.75,26.192,26.192c0,4.428,3.589,8.018,8.018,8.018c4.429,0,8.018-3.59,8.018-8.018 c0-14.442,11.749-26.192,26.192-26.192c4.429,0,8.018-3.59,8.018-8.018s-3.589-8.018-8.018-8.018 c-14.443,0-26.192-11.75-26.192-26.192c0-4.428-3.589-8.018-8.018-8.018c-4.429,0-8.018,3.59-8.018,8.018 c0,14.442-11.749,26.192-26.192,26.192c-4.429,0-8.018,3.59-8.018,8.018S414.029,131.406,418.458,131.406z M452.668,113.909 c2.637,3.637,5.842,6.842,9.479,9.479c-3.637,2.637-6.842,5.841-9.479,9.479c-2.637-3.637-5.842-6.842-9.479-9.479 C446.825,120.751,450.03,117.547,452.668,113.909z"/> <path d="M290.17,457.47c-14.443,0-26.192-11.75-26.192-26.192c0-4.428-3.589-8.018-8.018-8.018c-4.428,0-8.018,3.59-8.018,8.018 c0,14.442-11.75,26.192-26.192,26.192c-4.428,0-8.018,3.59-8.018,8.018c0,4.428,3.59,8.018,8.018,8.018 c14.442,0,26.192,11.75,26.192,26.192c0,4.428,3.59,8.018,8.018,8.018c4.429,0,8.018-3.59,8.018-8.018 c0-14.442,11.749-26.192,26.192-26.192c4.429,0,8.018-3.59,8.018-8.018C298.188,461.059,294.599,457.47,290.17,457.47z M255.96,474.967c-2.637-3.637-5.841-6.842-9.479-9.479c3.637-2.637,6.842-5.841,9.479-9.479c2.637,3.637,5.842,6.842,9.479,9.479 C261.803,468.125,258.598,471.329,255.96,474.967z"/> <path d="M16.491,131.406c14.442,0,26.192,11.75,26.192,26.192c0,4.428,3.59,8.018,8.018,8.018s8.018-3.59,8.018-8.018 c0-14.442,11.75-26.192,26.192-26.192c4.428,0,8.018-3.59,8.018-8.018s-3.59-8.018-8.018-8.018 c-14.442,0-26.192-11.75-26.192-26.192c0-4.428-3.59-8.018-8.018-8.018s-8.018,3.59-8.018,8.018 c0,14.442-11.75,26.192-26.192,26.192c-4.428,0-8.018,3.59-8.018,8.018S12.063,131.406,16.491,131.406z M50.701,113.909 c2.637,3.637,5.841,6.842,9.479,9.479c-3.637,2.637-6.842,5.841-9.479,9.479c-2.637-3.637-5.841-6.842-9.479-9.479 C44.859,120.751,48.063,117.547,50.701,113.909z"/> </g>
</svg>