<?xml version="1.0" encoding="utf-8"?><!-- Uploaded to: SVG Repo, www.svgrepo.com, Generator: SVG Repo Mixer Tools -->
<svg width="800px" height="800px" viewBox="0 0 32 32" id="crescentmoon_Light" data-name="crescentmoon/Light" xmlns="http://www.w3.org/2000/svg" fill="currentColor">
  <path id="Path" d="M0,0H8V2h4V4h2V6h2V8h2v6H16v2H14v4h2v4H14v2H12v2H8v2H20V28h4V26h2V24h2V20h2V10H28V6H26V4H24V2H20V0H32V32H0V14H2v2H4v2H6v2H8V18h2V16h2V14h2V12H12V10H10V8H8V6H6V8H4v2H2v2H0Z" fill="currentColor"/>
  <path id="Path-2" data-name="Path" d="M0,0H12V2H6V4H4V2H0Z" transform="translate(8)" fill="currentColor"/>
  <path id="Path-3" data-name="Path" d="M0,0H6V2h4V4h2V8h2V18H12v4H10v2H6v2H0V24H2V22H6V20H4V16H2V14H8V12H6V6H4V4H2V2H0Z" transform="translate(14 2)" fill="currentColor"/>
  <path id="Path-4" data-name="Path" d="M0,0H4V2H0Z" transform="translate(20 2)" fill="currentColor"/>
  <path id="Path-5" data-name="Path" d="M0,0H2V2H0Z" transform="translate(14 4)" fill="currentColor"/>
  <path id="Path-6" data-name="Path" d="M0,0H2V2H0Z" transform="translate(24 4)" fill="currentColor"/>
  <path id="Path-7" data-name="Path" d="M0,0H2V2H0Z" transform="translate(6 6)" fill="currentColor"/>
  <path id="Path-8" data-name="Path" d="M0,0H2V2H0Z" transform="translate(16 6)" fill="currentColor"/>
  <path id="Path-9" data-name="Path" d="M0,0H2V4H0Z" transform="translate(26 6)" fill="currentColor"/>
  <path id="Path-10" data-name="Path" d="M2,0H4V4H0V2H2Z" transform="translate(2 8)" fill="currentColor"/>
  <path id="Path-11" data-name="Path" d="M4,0H6V4h4V6H6v4H4V6H0V4H4Z" transform="translate(2 8)" fill="currentColor"/>
  <path id="Path-12" data-name="Path" d="M0,0H2V2H4V4H0Z" transform="translate(8 8)" fill="currentColor"/>
  <path id="Path-13" data-name="Path" d="M2,0H4V6H6V8H0V6H2Z" transform="translate(16 8)" fill="currentColor"/>
  <path id="Path-14" data-name="Path" d="M0,0H2V10H0Z" transform="translate(28 10)" fill="currentColor"/>
  <path id="Path-15" data-name="Path" d="M0,0H2V2H0Z" transform="translate(0 12)" fill="currentColor"/>
  <path id="Path-16" data-name="Path" d="M0,0H2V2H0Z" transform="translate(12 12)" fill="currentColor"/>
  <path id="Path-17" data-name="Path" d="M0,0H4V4H2V2H0Z" transform="translate(22 12)" fill="currentColor"/>
  <path id="Path-18" data-name="Path" d="M0,0H4V4H2V2H0Z" transform="translate(2 14)" fill="currentColor"/>
  <path id="Path-19" data-name="Path" d="M0,0H4V2H2V4H0Z" transform="translate(8 14)" fill="currentColor"/>
  <path id="Path-20" data-name="Path" d="M0,0H2V2H4V6H6V8H2V4H0Z" transform="translate(14 16)" fill="currentColor"/>
  <path id="Path-21" data-name="Path" d="M0,0H2V2H0Z" transform="translate(6 18)" fill="currentColor"/>
  <path id="Path-22" data-name="Path" d="M0,0H2V4H0Z" transform="translate(26 20)" fill="currentColor"/>
  <path id="Path-23" data-name="Path" d="M0,0H2V2H0Z" transform="translate(14 24)" fill="currentColor"/>
  <path id="Path-24" data-name="Path" d="M0,0H2V2H0Z" transform="translate(24 24)" fill="currentColor"/>
  <path id="Path-25" data-name="Path" d="M4,0H6V2h6V4H0V2H4Z" transform="translate(8 26)" fill="currentColor"/>
  <path id="Path-26" data-name="Path" d="M0,0H4V2H0Z" transform="translate(20 26)" fill="currentColor"/>
  <path id="Path-27" data-name="Path" d="M0,0H4V2H0Z" transform="translate(2 28)" fill="currentColor"/>
</svg>