<!DOCTYPE svg PUBLIC "-//W3C//DTD SVG 1.1//EN" "http://www.w3.org/Graphics/SVG/1.1/DTD/svg11.dtd">
<!-- Uploaded to: SVG Repo, www.svgrepo.com, Transformed by: SVG Repo Mixer Tools -->
<svg width="800px" height="800px" viewBox="0 0 32 32" id="clockfacenineoclock_Light" data-name="clockfacenineoclock/Light" xmlns="http://www.w3.org/2000/svg" fill="#000000">
<g id="SVGRepo_bgCarrier" stroke-width="0"/>
<g id="SVGRepo_tracerCarrier" stroke-linecap="round" stroke-linejoin="round"/>
<g id="SVGRepo_iconCarrier"> <path id="Path" d="M0,0H10V2H6V4H4V6H2v4H0Z" fill="#ffffff"/> <path id="Path-2" data-name="Path" d="M0,0H12V2H8V16H6V2H0Z" transform="translate(10)" fill="#1a1a1a"/> <path id="Path-3" data-name="Path" d="M0,0H10V10H8V6H6V4H4V2H0Z" transform="translate(22)" fill="#ffffff"/> <path id="Path-4" data-name="Path" d="M0,0H4V2H0Z" transform="translate(6 2)" fill="#1a1a1a"/> <path id="Path-5" data-name="Path" d="M8,0h6V14H6v2h8V14h2V0h4V2h4V4h2V8h2V20H26v4H24v2H20v2H8V26H4V24H2V20H0V8H2V4H4V2H8Z" transform="translate(2 2)" fill="#ffffff"/> <path id="Path-6" data-name="Path" d="M0,0H4V2H0Z" transform="translate(22 2)" fill="#1a1a1a"/> <path id="Path-7" data-name="Path" d="M0,0H2V2H0Z" transform="translate(4 4)" fill="#1a1a1a"/> <path id="Path-8" data-name="Path" d="M0,0H2V2H0Z" transform="translate(26 4)" fill="#1a1a1a"/> <path id="Path-9" data-name="Path" d="M0,0H2V4H0Z" transform="translate(2 6)" fill="#1a1a1a"/> <path id="Path-10" data-name="Path" d="M0,0H2V4H0Z" transform="translate(28 6)" fill="#1a1a1a"/> <path id="Path-11" data-name="Path" d="M0,0H2V12H0Z" transform="translate(0 10)" fill="#1a1a1a"/> <path id="Path-12" data-name="Path" d="M0,0H2V12H0Z" transform="translate(30 10)" fill="#1a1a1a"/> <path id="Path-13" data-name="Path" d="M0,0H8V2H0Z" transform="translate(8 16)" fill="#1a1a1a"/> <path id="Path-14" data-name="Path" d="M0,0H2V4H4V6H6V8h4v2H0Z" transform="translate(0 22)" fill="#ffffff"/> <path id="Path-15" data-name="Path" d="M0,0H2V4H0Z" transform="translate(2 22)" fill="#1a1a1a"/> <path id="Path-16" data-name="Path" d="M0,0H2V4H0Z" transform="translate(28 22)" fill="#1a1a1a"/> <path id="Path-17" data-name="Path" d="M8,0h2V10H0V8H4V6H6V4H8Z" transform="translate(22 22)" fill="#ffffff"/> <path id="Path-18" data-name="Path" d="M0,0H2V2H0Z" transform="translate(4 26)" fill="#1a1a1a"/> <path id="Path-19" data-name="Path" d="M0,0H2V2H0Z" transform="translate(26 26)" fill="#1a1a1a"/> <path id="Path-20" data-name="Path" d="M0,0H4V2H0Z" transform="translate(6 28)" fill="#1a1a1a"/> <path id="Path-21" data-name="Path" d="M0,0H4V2H0Z" transform="translate(22 28)" fill="#1a1a1a"/> <path id="Path-22" data-name="Path" d="M0,0H12V2H0Z" transform="translate(10 30)" fill="#1a1a1a"/> </g>
</svg>