<?xml version="1.0" encoding="utf-8"?><!-- Uploaded to: SVG Repo, www.svgrepo.com, Generator: SVG Repo Mixer Tools -->
<svg width="800px" height="800px" viewBox="0 0 32 32" id="girl_Light" data-name="girl/Light" xmlns="http://www.w3.org/2000/svg">
  <path id="Path" d="M0,0H10V2h2V4h4V6h2V8h2v2h2V8H20V6H18V4H16V2H12V0H24V2h4V4h2V8h2V32H30V30H26V26H24V20h2V14H24V12H22v2H20V12H16V10H12V8H8V6H6v8H2V12H4V10H2V8H0Z" fill="#1a1a1a"/>
  <path id="Path-2" data-name="Path" d="M0,0H2V2H0Z" transform="translate(10)" fill="#ffffff"/>
  <path id="Path-3" data-name="Path" d="M0,0H8V8H6V4H4V2H0Z" transform="translate(24)" fill="#ffffff"/>
  <path id="Path-4" data-name="Path" d="M0,0H4V2H0Z" transform="translate(12 2)" fill="#ffffff"/>
  <path id="Path-5" data-name="Path" d="M0,0H2V2H0Z" transform="translate(16 4)" fill="#ffffff"/>
  <path id="Path-6" data-name="Path" d="M2,0H4V2H8V4h4V6h4V8h2v2h2V8h2v6H20v6h2v4h4v2H12V24H8V18H4V16H0V14H2V12H4V8H2Z" transform="translate(4 6)" fill="#ffffff"/>
  <path id="Path-7" data-name="Path" d="M0,0H2V2H0Z" transform="translate(18 6)" fill="#ffffff"/>
  <path id="Path-8" data-name="Path" d="M0,0H2V2H4V4H2V6H6v4H4v2H2v2H4v2H8v4h2v2h2v2H0Z" transform="translate(0 8)" fill="#ffffff"/>
  <path id="Path-9" data-name="Path" d="M0,0H2V2H0Z" transform="translate(20 8)" fill="#ffffff"/>
  <path id="Path-10" data-name="Path" d="M0,0H4V2H6V4H4V6H2V2H0Z" transform="translate(10 12)" fill="#1a1a1a"/>
  <path id="Path-11" data-name="Path" d="M0,0H2V2H0Z" transform="translate(22 12)" fill="#ffffff"/>
  <path id="Path-12" data-name="Path" d="M0,0H2V4H0Z" transform="translate(6 14)" fill="#1a1a1a"/>
  <path id="Path-13" data-name="Path" d="M0,0H2V2H0Z" transform="translate(22 14)" fill="#1a1a1a"/>
  <path id="Path-14" data-name="Path" d="M0,0H2V2H0Z" transform="translate(4 18)" fill="#1a1a1a"/>
  <path id="Path-15" data-name="Path" d="M0,0H2V2H0Z" transform="translate(2 20)" fill="#1a1a1a"/>
  <path id="Path-16" data-name="Path" d="M0,0H4V2H0Z" transform="translate(4 22)" fill="#1a1a1a"/>
  <path id="Path-17" data-name="Path" d="M0,0H4V6H2V4H0Z" transform="translate(8 24)" fill="#1a1a1a"/>
  <path id="Path-18" data-name="Path" d="M0,0H4V2H0Z" transform="translate(16 28)" fill="#1a1a1a"/>
  <path id="Path-19" data-name="Path" d="M0,0H4V2H0Z" transform="translate(12 30)" fill="#1a1a1a"/>
</svg>